<?xml version="1.0" encoding="UTF-8"?>
<svg xmlns="http://www.w3.org/2000/svg" xmlns:xlink="http://www.w3.org/1999/xlink" width="250px" height="250px" viewBox="0 0 250 250" version="1.1">
<defs>
<filter id="alpha" filterUnits="objectBoundingBox" x="0%" y="0%" width="100%" height="100%">
  <feColorMatrix type="matrix" in="SourceGraphic" values="0 0 0 0 1 0 0 0 0 1 0 0 0 0 1 0 0 0 1 0"/>
</filter>
<mask id="mask0">
  <g filter="url(#alpha)">
<rect x="0" y="0" width="250" height="250" style="fill:rgb(0%,0%,0%);fill-opacity:0.2;stroke:none;"/>
  </g>
</mask>
<clipPath id="clip1">
  <rect x="0" y="0" width="250" height="250"/>
</clipPath>
<g id="surface5" clip-path="url(#clip1)">
<path style=" stroke:none;fill-rule:nonzero;fill:rgb(51.372552%,78.823531%,80.000001%);fill-opacity:1;" d="M 76.980469 92.472656 C 76.183594 103.984375 65.074219 108.746094 58.328125 107.15625 C 51.578125 105.570312 45.625 99.21875 45.625 92.472656 C 45.625 85.726562 51.183594 79.773438 58.328125 79.773438 C 65.074219 79.773438 77.375 85.328125 76.980469 92.472656 Z M 76.980469 92.472656 "/>
</g>
<mask id="mask1">
  <g filter="url(#alpha)">
<rect x="0" y="0" width="250" height="250" style="fill:rgb(0%,0%,0%);fill-opacity:0.2;stroke:none;"/>
  </g>
</mask>
<clipPath id="clip2">
  <rect x="0" y="0" width="250" height="250"/>
</clipPath>
<g id="surface8" clip-path="url(#clip2)">
<path style=" stroke:none;fill-rule:nonzero;fill:rgb(51.372552%,78.823531%,80.000001%);fill-opacity:1;" d="M 173.019531 92.472656 C 173.816406 103.984375 184.925781 108.746094 191.675781 107.15625 C 198.421875 105.570312 204.375 99.21875 204.375 92.472656 C 204.375 85.726562 198.816406 79.773438 191.675781 79.773438 C 184.925781 79.773438 172.625 85.328125 173.019531 92.472656 Z M 173.019531 92.472656 "/>
</g>
</defs>
<g id="surface1">
<path style=" stroke:none;fill-rule:nonzero;fill:rgb(9.803922%,22.745098%,22.352941%);fill-opacity:1;" d="M 164.6875 214.3125 C 164.6875 217.089844 164.289062 219.867188 161.117188 219.867188 L 108.730469 219.867188 C 105.949219 219.867188 105.15625 217.488281 105.15625 214.3125 L 105.15625 158.75 C 105.15625 155.972656 105.949219 152.402344 108.730469 152.402344 L 161.117188 152.402344 C 163.894531 152.402344 164.6875 155.972656 164.6875 158.75 Z M 164.6875 214.3125 "/>
<path style=" stroke:none;fill-rule:nonzero;fill:rgb(9.803922%,22.745098%,22.352941%);fill-opacity:1;" d="M 212.3125 214.3125 C 212.3125 217.089844 210.722656 219.867188 207.550781 219.867188 L 155.164062 219.867188 C 152.382812 219.867188 148.8125 217.488281 148.8125 214.3125 L 148.8125 51.597656 C 148.8125 48.816406 152.382812 44.847656 155.164062 44.847656 L 207.550781 44.847656 C 210.328125 44.847656 212.3125 47.230469 212.3125 50.007812 Z M 212.3125 214.3125 "/>
<path style=" stroke:none;fill-rule:nonzero;fill:rgb(14.117648%,31.764707%,31.764707%);fill-opacity:1;" d="M 128.96875 208.359375 C 128.96875 212.722656 127.382812 215.898438 123.015625 215.898438 L 44.832031 215.898438 C 40.46875 215.898438 37.6875 212.722656 37.6875 208.359375 L 37.6875 125.808594 C 37.6875 121.445312 40.46875 116.683594 44.832031 116.683594 L 123.015625 116.683594 C 127.382812 116.683594 128.96875 121.445312 128.96875 125.808594 Z M 128.96875 208.359375 "/>
<path style=" stroke:none;fill-rule:nonzero;fill:rgb(14.117648%,31.764707%,31.764707%);fill-opacity:1;" d="M 71.027344 205.183594 C 72.214844 209.152344 69.835938 213.519531 65.867188 214.707031 L 62.296875 215.898438 C 58.328125 217.089844 53.960938 214.707031 52.769531 210.742188 L 7.925781 57.945312 C 6.734375 53.976562 9.113281 49.613281 13.082031 48.421875 L 16.257812 47.628906 C 20.226562 46.4375 24.59375 48.816406 25.78125 52.785156 Z M 71.027344 205.183594 "/>
<path style=" stroke:none;fill-rule:nonzero;fill:rgb(9.803922%,22.745098%,22.352941%);fill-opacity:1;" d="M 65.46875 210.742188 C 65.46875 215.105469 62.296875 218.675781 57.929688 219.074219 L 54.753906 219.074219 C 50.390625 219.074219 46.816406 215.898438 46.421875 211.535156 L 39.671875 52.785156 C 39.671875 48.421875 42.847656 44.847656 47.214844 44.453125 L 50.390625 44.453125 C 54.753906 44.453125 58.328125 47.628906 58.722656 51.992188 Z M 65.46875 210.742188 "/>
<path style=" stroke:none;fill-rule:nonzero;fill:rgb(20.784314%,37.64706%,37.254903%);fill-opacity:1;" d="M 51.183594 186.929688 C 51.578125 191.292969 48.40625 194.867188 44.039062 195.261719 L 40.863281 195.660156 C 36.5 196.054688 32.925781 192.882812 32.53125 188.515625 L 17.449219 30.5625 C 17.050781 26.195312 20.226562 22.625 24.59375 22.226562 L 27.765625 21.832031 C 32.132812 21.433594 35.703125 24.609375 36.101562 28.972656 Z M 51.183594 186.929688 "/>
<path style=" stroke:none;fill-rule:nonzero;fill:rgb(100%,5.098039%,32.156864%);fill-opacity:1;" d="M 225.804688 174.226562 L 249.617188 98.425781 C 250.410156 95.25 250.015625 91.679688 248.03125 89.296875 C 246.046875 86.917969 242.871094 84.933594 239.695312 84.933594 L 10.304688 84.933594 C 7.128906 84.933594 3.957031 86.519531 1.972656 89.296875 C -0.0117188 92.078125 -0.410156 95.25 0.382812 98.425781 L 24.195312 174.226562 C 24.195312 175.816406 24.59375 177.007812 25.386719 178.59375 L 35.703125 211.929688 C 36.894531 216.296875 40.863281 219.867188 45.625 219.867188 L 204.375 219.867188 C 208.738281 219.867188 212.707031 216.296875 214.296875 211.929688 L 224.613281 178.59375 Z M 36.5 144.464844 L 213.503906 144.464844 L 207.550781 164.304688 L 42.054688 164.304688 Z M 225.804688 104.777344 L 220.25 124.621094 L 30.148438 124.621094 L 24.59375 104.777344 Z M 53.167969 200.023438 L 48.800781 184.148438 L 201.597656 184.148438 L 197.230469 200.023438 Z M 53.167969 200.023438 "/>
<path style=" stroke:none;fill-rule:nonzero;fill:rgb(87.843138%,0%,29.411766%);fill-opacity:1;" d="M 248.03125 92.871094 C 246.046875 90.09375 242.871094 88.902344 239.695312 88.902344 L 10.304688 88.902344 C 7.128906 88.902344 3.957031 90.09375 1.972656 92.871094 C -0.0117188 95.648438 -0.410156 98.824219 0.382812 102 L 35.703125 214.707031 C 36.101562 215.503906 36.101562 216.296875 36.5 216.691406 C 35.308594 217.882812 34.515625 219.472656 34.515625 221.457031 C 34.515625 225.027344 37.292969 228.203125 40.863281 228.203125 L 208.34375 228.203125 C 211.914062 228.203125 214.691406 225.027344 214.691406 221.457031 C 214.691406 219.867188 213.898438 217.882812 212.707031 216.691406 C 213.105469 215.898438 213.503906 215.503906 213.503906 214.707031 L 223.820312 181.769531 L 225.011719 177.402344 L 248.824219 101.601562 C 250.410156 98.824219 250.015625 95.25 248.03125 92.871094 Z M 48.800781 188.117188 L 201.597656 188.117188 L 197.230469 203.992188 L 53.167969 203.992188 Z M 207.945312 164.304688 L 42.054688 164.304688 L 36.101562 148.433594 L 213.105469 148.433594 Z M 219.851562 128.589844 L 30.148438 128.589844 L 24.59375 108.746094 L 225.804688 108.746094 Z M 219.851562 128.589844 "/>
<path style=" stroke:none;fill-rule:nonzero;fill:rgb(39.607844%,64.705884%,65.882355%);fill-opacity:1;" d="M 76.183594 96.441406 C 72.613281 100.015625 66.660156 100.015625 63.089844 96.441406 L 54.753906 88.109375 C 51.183594 84.535156 51.183594 78.582031 54.753906 75.011719 L 96.824219 31.753906 C 100.394531 28.179688 106.347656 28.179688 109.917969 31.753906 L 118.253906 40.085938 C 121.824219 43.660156 121.824219 49.613281 118.253906 53.183594 Z M 76.183594 96.441406 "/>
<path style=" stroke:none;fill-rule:nonzero;fill:rgb(44.705883%,69.411767%,71.764708%);fill-opacity:1;" d="M 65.46875 85.726562 L 107.933594 43.261719 C 111.109375 40.085938 111.507812 34.925781 108.730469 31.355469 C 105.15625 28.578125 99.996094 28.972656 96.824219 32.148438 L 54.359375 74.613281 C 51.183594 77.789062 50.785156 82.949219 53.5625 86.519531 C 57.136719 89.296875 62.296875 88.902344 65.46875 85.726562 Z M 65.46875 85.726562 "/>
<path style=" stroke:none;fill-rule:nonzero;fill:rgb(34.117648%,60.784316%,60.784316%);fill-opacity:1;" d="M 77.773438 73.027344 C 82.535156 77.789062 71.820312 96.441406 67.058594 101.601562 C 62.296875 106.363281 54.359375 106.363281 49.199219 101.601562 C 44.4375 96.839844 44.4375 88.902344 49.199219 83.742188 C 54.359375 78.582031 73.011719 67.867188 77.773438 73.027344 Z M 77.773438 73.027344 "/>
<use xlink:href="#surface5" mask="url(#mask0)"/>
<path style=" stroke:none;fill-rule:nonzero;fill:rgb(51.372552%,78.823531%,80.000001%);fill-opacity:1;" d="M 71.027344 92.472656 C 71.027344 85.460938 65.339844 79.773438 58.328125 79.773438 C 51.3125 79.773438 45.625 85.460938 45.625 92.472656 C 45.625 99.488281 51.3125 105.171875 58.328125 105.171875 C 65.339844 105.171875 71.027344 99.488281 71.027344 92.472656 Z M 71.027344 92.472656 "/>
<path style=" stroke:none;fill-rule:nonzero;fill:rgb(44.705883%,69.411767%,71.764708%);fill-opacity:1;" d="M 67.058594 83.34375 C 71.820312 88.109375 71.820312 96.046875 67.058594 101.203125 C 62.296875 105.96875 54.359375 105.96875 49.199219 101.203125 "/>
<path style=" stroke:none;fill-rule:nonzero;fill:rgb(44.705883%,69.411767%,71.764708%);fill-opacity:1;" d="M 173.816406 96.441406 C 177.386719 100.015625 183.339844 100.015625 186.910156 96.441406 L 195.246094 88.109375 C 198.816406 84.535156 198.816406 78.582031 195.246094 75.011719 L 153.179688 31.753906 C 149.605469 28.179688 143.652344 28.179688 140.082031 31.753906 L 131.746094 40.085938 C 128.175781 43.660156 128.175781 49.613281 131.746094 53.183594 Z M 173.816406 96.441406 "/>
<path style=" stroke:none;fill-rule:nonzero;fill:rgb(39.607844%,64.705884%,65.882355%);fill-opacity:1;" d="M 184.53125 85.726562 L 142.066406 42.863281 C 138.890625 39.691406 138.492188 34.53125 141.273438 30.957031 C 144.84375 28.179688 150.003906 28.578125 153.179688 31.753906 L 195.644531 74.21875 C 198.816406 77.390625 199.214844 82.550781 196.4375 86.125 C 192.863281 89.296875 187.707031 88.902344 184.53125 85.726562 Z M 184.53125 85.726562 "/>
<path style=" stroke:none;fill-rule:nonzero;fill:rgb(34.117648%,60.784316%,60.784316%);fill-opacity:1;" d="M 172.226562 73.027344 C 167.464844 77.789062 178.179688 96.441406 182.941406 101.601562 C 187.707031 106.363281 195.644531 106.363281 200.800781 101.601562 C 205.566406 96.839844 205.566406 88.902344 200.800781 83.742188 C 195.644531 78.582031 176.988281 67.867188 172.226562 73.027344 Z M 172.226562 73.027344 "/>
<use xlink:href="#surface8" mask="url(#mask1)"/>
<path style=" stroke:none;fill-rule:nonzero;fill:rgb(44.705883%,69.411767%,71.764708%);fill-opacity:1;" d="M 204.375 92.472656 C 204.375 85.460938 198.6875 79.773438 191.675781 79.773438 C 184.660156 79.773438 178.972656 85.460938 178.972656 92.472656 C 178.972656 99.488281 184.660156 105.171875 191.675781 105.171875 C 198.6875 105.171875 204.375 99.488281 204.375 92.472656 Z M 204.375 92.472656 "/>
<path style=" stroke:none;fill-rule:nonzero;fill:rgb(51.372552%,78.823531%,80.000001%);fill-opacity:1;" d="M 182.941406 83.34375 C 178.179688 88.109375 178.179688 96.046875 182.941406 101.203125 C 187.707031 105.96875 195.644531 105.96875 200.800781 101.203125 "/>
</g>
</svg>
