<?xml version="1.0" encoding="UTF-8"?>
<svg xmlns="http://www.w3.org/2000/svg" xmlns:xlink="http://www.w3.org/1999/xlink" width="100px" height="100px" viewBox="0 0 100 100" version="1.1">
<defs>
<filter id="alpha" filterUnits="objectBoundingBox" x="0%" y="0%" width="100%" height="100%">
  <feColorMatrix type="matrix" in="SourceGraphic" values="0 0 0 0 1 0 0 0 0 1 0 0 0 0 1 0 0 0 1 0"/>
</filter>
<mask id="mask0">
  <g filter="url(#alpha)">
<rect x="0" y="0" width="100" height="100" style="fill:rgb(0%,0%,0%);fill-opacity:0.2;stroke:none;"/>
  </g>
</mask>
<clipPath id="clip1">
  <rect x="0" y="0" width="100" height="100"/>
</clipPath>
<g id="surface5" clip-path="url(#clip1)">
<path style=" stroke:none;fill-rule:nonzero;fill:rgb(51.372552%,78.823531%,80.000001%);fill-opacity:1;" d="M 30.792969 36.988281 C 30.472656 41.59375 26.027344 43.496094 23.332031 42.863281 C 20.632812 42.226562 18.25 39.6875 18.25 36.988281 C 18.25 34.289062 20.472656 31.910156 23.332031 31.910156 C 26.027344 31.910156 30.949219 34.132812 30.792969 36.988281 Z M 30.792969 36.988281 "/>
</g>
<mask id="mask1">
  <g filter="url(#alpha)">
<rect x="0" y="0" width="100" height="100" style="fill:rgb(0%,0%,0%);fill-opacity:0.2;stroke:none;"/>
  </g>
</mask>
<clipPath id="clip2">
  <rect x="0" y="0" width="100" height="100"/>
</clipPath>
<g id="surface8" clip-path="url(#clip2)">
<path style=" stroke:none;fill-rule:nonzero;fill:rgb(51.372552%,78.823531%,80.000001%);fill-opacity:1;" d="M 69.207031 36.988281 C 69.527344 41.59375 73.972656 43.496094 76.667969 42.863281 C 79.367188 42.226562 81.75 39.6875 81.75 36.988281 C 81.75 34.289062 79.527344 31.910156 76.667969 31.910156 C 73.972656 31.910156 69.050781 34.132812 69.207031 36.988281 Z M 69.207031 36.988281 "/>
</g>
</defs>
<g id="surface1">
<path style=" stroke:none;fill-rule:nonzero;fill:rgb(9.803922%,22.745098%,22.352941%);fill-opacity:1;" d="M 65.875 85.726562 C 65.875 86.835938 65.714844 87.949219 64.445312 87.949219 L 43.492188 87.949219 C 42.378906 87.949219 42.0625 86.996094 42.0625 85.726562 L 42.0625 63.5 C 42.0625 62.390625 42.378906 60.960938 43.492188 60.960938 L 64.445312 60.960938 C 65.558594 60.960938 65.875 62.390625 65.875 63.5 Z M 65.875 85.726562 "/>
<path style=" stroke:none;fill-rule:nonzero;fill:rgb(9.803922%,22.745098%,22.352941%);fill-opacity:1;" d="M 84.925781 85.726562 C 84.925781 86.835938 84.289062 87.949219 83.019531 87.949219 L 62.066406 87.949219 C 60.953125 87.949219 59.523438 86.996094 59.523438 85.726562 L 59.523438 20.636719 C 59.523438 19.527344 60.953125 17.941406 62.066406 17.941406 L 83.019531 17.941406 C 84.128906 17.941406 84.925781 18.890625 84.925781 20.003906 Z M 84.925781 85.726562 "/>
<path style=" stroke:none;fill-rule:nonzero;fill:rgb(14.117648%,31.764707%,31.764707%);fill-opacity:1;" d="M 51.585938 83.34375 C 51.585938 85.089844 50.953125 86.359375 49.207031 86.359375 L 17.933594 86.359375 C 16.1875 86.359375 15.074219 85.089844 15.074219 83.34375 L 15.074219 50.324219 C 15.074219 48.578125 16.1875 46.671875 17.933594 46.671875 L 49.207031 46.671875 C 50.953125 46.671875 51.585938 48.578125 51.585938 50.324219 Z M 51.585938 83.34375 "/>
<path style=" stroke:none;fill-rule:nonzero;fill:rgb(14.117648%,31.764707%,31.764707%);fill-opacity:1;" d="M 28.410156 82.074219 C 28.886719 83.660156 27.933594 85.40625 26.347656 85.882812 L 24.917969 86.359375 C 23.332031 86.835938 21.585938 85.882812 21.109375 84.296875 L 3.167969 23.179688 C 2.691406 21.589844 3.644531 19.84375 5.234375 19.367188 L 6.503906 19.050781 C 8.089844 18.574219 9.835938 19.527344 10.3125 21.113281 Z M 28.410156 82.074219 "/>
<path style=" stroke:none;fill-rule:nonzero;fill:rgb(9.803922%,22.745098%,22.352941%);fill-opacity:1;" d="M 26.1875 84.296875 C 26.1875 86.042969 24.917969 87.472656 23.171875 87.628906 L 21.902344 87.628906 C 20.15625 87.628906 18.726562 86.359375 18.566406 84.613281 L 15.871094 21.113281 C 15.871094 19.367188 17.140625 17.941406 18.886719 17.78125 L 20.15625 17.78125 C 21.902344 17.78125 23.332031 19.050781 23.488281 20.796875 Z M 26.1875 84.296875 "/>
<path style=" stroke:none;fill-rule:nonzero;fill:rgb(20.784314%,37.64706%,37.254903%);fill-opacity:1;" d="M 20.472656 74.769531 C 20.632812 76.515625 19.363281 77.945312 17.617188 78.105469 L 16.34375 78.265625 C 14.597656 78.421875 13.171875 77.152344 13.011719 75.40625 L 6.980469 12.226562 C 6.820312 10.480469 8.089844 9.050781 9.835938 8.890625 L 11.105469 8.730469 C 12.851562 8.574219 14.28125 9.84375 14.441406 11.589844 Z M 20.472656 74.769531 "/>
<path style=" stroke:none;fill-rule:nonzero;fill:rgb(100%,5.098039%,32.156864%);fill-opacity:1;" d="M 90.320312 69.691406 L 99.847656 39.371094 C 100.164062 38.101562 100.003906 36.671875 99.210938 35.71875 C 98.417969 34.765625 97.148438 33.972656 95.878906 33.972656 L 4.121094 33.972656 C 2.851562 33.972656 1.582031 34.609375 0.789062 35.71875 C -0.00390625 36.832031 -0.164062 38.101562 0.152344 39.371094 L 9.679688 69.691406 C 9.679688 70.328125 9.835938 70.800781 10.15625 71.4375 L 14.28125 84.773438 C 14.757812 86.519531 16.34375 87.949219 18.25 87.949219 L 81.75 87.949219 C 83.496094 87.949219 85.082031 86.519531 85.71875 84.773438 L 89.847656 71.4375 Z M 14.597656 57.785156 L 85.402344 57.785156 L 83.019531 65.722656 L 16.820312 65.722656 Z M 90.320312 41.910156 L 88.097656 49.847656 L 12.058594 49.847656 L 9.835938 41.910156 Z M 21.265625 80.011719 L 19.519531 73.660156 L 80.636719 73.660156 L 78.890625 80.011719 Z M 21.265625 80.011719 "/>
<path style=" stroke:none;fill-rule:nonzero;fill:rgb(87.843138%,0%,29.411766%);fill-opacity:1;" d="M 99.210938 37.148438 C 98.417969 36.035156 97.148438 35.5625 95.878906 35.5625 L 4.121094 35.5625 C 2.851562 35.5625 1.582031 36.035156 0.789062 37.148438 C -0.00390625 38.257812 -0.164062 39.53125 0.152344 40.800781 L 14.28125 85.882812 C 14.441406 86.199219 14.441406 86.519531 14.597656 86.675781 C 14.125 87.152344 13.804688 87.789062 13.804688 88.582031 C 13.804688 90.011719 14.917969 91.28125 16.34375 91.28125 L 83.335938 91.28125 C 84.765625 91.28125 85.878906 90.011719 85.878906 88.582031 C 85.878906 87.949219 85.558594 87.152344 85.082031 86.675781 C 85.242188 86.359375 85.402344 86.199219 85.402344 85.882812 L 89.527344 72.707031 L 90.003906 70.960938 L 99.53125 40.640625 C 100.164062 39.53125 100.003906 38.101562 99.210938 37.148438 Z M 19.519531 75.246094 L 80.636719 75.246094 L 78.890625 81.597656 L 21.265625 81.597656 Z M 83.179688 65.722656 L 16.820312 65.722656 L 14.441406 59.371094 L 85.242188 59.371094 Z M 87.941406 51.433594 L 12.058594 51.433594 L 9.835938 43.496094 L 90.320312 43.496094 Z M 87.941406 51.433594 "/>
<path style=" stroke:none;fill-rule:nonzero;fill:rgb(39.607844%,64.705884%,65.882355%);fill-opacity:1;" d="M 30.472656 38.578125 C 29.046875 40.003906 26.664062 40.003906 25.234375 38.578125 L 21.902344 35.242188 C 20.472656 33.8125 20.472656 31.433594 21.902344 30.003906 L 38.730469 12.699219 C 40.15625 11.273438 42.539062 11.273438 43.96875 12.699219 L 47.300781 16.035156 C 48.730469 17.464844 48.730469 19.84375 47.300781 21.273438 Z M 30.472656 38.578125 "/>
<path style=" stroke:none;fill-rule:nonzero;fill:rgb(44.705883%,69.411767%,71.764708%);fill-opacity:1;" d="M 26.1875 34.289062 L 43.175781 17.304688 C 44.445312 16.035156 44.601562 13.972656 43.492188 12.542969 C 42.0625 11.429688 40 11.589844 38.730469 12.859375 L 21.742188 29.847656 C 20.472656 31.117188 20.3125 33.179688 21.425781 34.609375 C 22.855469 35.71875 24.917969 35.5625 26.1875 34.289062 Z M 26.1875 34.289062 "/>
<path style=" stroke:none;fill-rule:nonzero;fill:rgb(34.117648%,60.784316%,60.784316%);fill-opacity:1;" d="M 31.109375 29.210938 C 33.015625 31.117188 28.726562 38.578125 26.824219 40.640625 C 24.917969 42.546875 21.742188 42.546875 19.679688 40.640625 C 17.773438 38.734375 17.773438 35.5625 19.679688 33.496094 C 21.742188 31.433594 29.203125 27.148438 31.109375 29.210938 Z M 31.109375 29.210938 "/>
<use xlink:href="#surface5" mask="url(#mask0)"/>
<path style=" stroke:none;fill-rule:nonzero;fill:rgb(51.372552%,78.823531%,80.000001%);fill-opacity:1;" d="M 28.410156 36.988281 C 28.410156 34.183594 26.136719 31.910156 23.332031 31.910156 C 20.523438 31.910156 18.25 34.183594 18.25 36.988281 C 18.25 39.792969 20.523438 42.070312 23.332031 42.070312 C 26.136719 42.070312 28.410156 39.792969 28.410156 36.988281 Z M 28.410156 36.988281 "/>
<path style=" stroke:none;fill-rule:nonzero;fill:rgb(44.705883%,69.411767%,71.764708%);fill-opacity:1;" d="M 26.824219 33.339844 C 28.726562 35.242188 28.726562 38.417969 26.824219 40.480469 C 24.917969 42.386719 21.742188 42.386719 19.679688 40.480469 "/>
<path style=" stroke:none;fill-rule:nonzero;fill:rgb(44.705883%,69.411767%,71.764708%);fill-opacity:1;" d="M 69.527344 38.578125 C 70.953125 40.003906 73.335938 40.003906 74.765625 38.578125 L 78.097656 35.242188 C 79.527344 33.8125 79.527344 31.433594 78.097656 30.003906 L 61.269531 12.699219 C 59.84375 11.273438 57.460938 11.273438 56.03125 12.699219 L 52.699219 16.035156 C 51.269531 17.464844 51.269531 19.84375 52.699219 21.273438 Z M 69.527344 38.578125 "/>
<path style=" stroke:none;fill-rule:nonzero;fill:rgb(39.607844%,64.705884%,65.882355%);fill-opacity:1;" d="M 73.8125 34.289062 L 56.828125 17.144531 C 55.554688 15.875 55.398438 13.8125 56.507812 12.382812 C 57.9375 11.273438 60 11.429688 61.269531 12.699219 L 78.257812 29.6875 C 79.527344 30.957031 79.6875 33.019531 78.574219 34.449219 C 77.144531 35.71875 75.082031 35.5625 73.8125 34.289062 Z M 73.8125 34.289062 "/>
<path style=" stroke:none;fill-rule:nonzero;fill:rgb(34.117648%,60.784316%,60.784316%);fill-opacity:1;" d="M 68.890625 29.210938 C 66.984375 31.117188 71.273438 38.578125 73.175781 40.640625 C 75.082031 42.546875 78.257812 42.546875 80.320312 40.640625 C 82.226562 38.734375 82.226562 35.5625 80.320312 33.496094 C 78.257812 31.433594 70.796875 27.148438 68.890625 29.210938 Z M 68.890625 29.210938 "/>
<use xlink:href="#surface8" mask="url(#mask1)"/>
<path style=" stroke:none;fill-rule:nonzero;fill:rgb(44.705883%,69.411767%,71.764708%);fill-opacity:1;" d="M 81.75 36.988281 C 81.75 34.183594 79.476562 31.910156 76.667969 31.910156 C 73.863281 31.910156 71.589844 34.183594 71.589844 36.988281 C 71.589844 39.792969 73.863281 42.070312 76.667969 42.070312 C 79.476562 42.070312 81.75 39.792969 81.75 36.988281 Z M 81.75 36.988281 "/>
<path style=" stroke:none;fill-rule:nonzero;fill:rgb(51.372552%,78.823531%,80.000001%);fill-opacity:1;" d="M 73.175781 33.339844 C 71.273438 35.242188 71.273438 38.417969 73.175781 40.480469 C 75.082031 42.386719 78.257812 42.386719 80.320312 40.480469 "/>
</g>
</svg>
